<mxfile host="app.diagrams.net" agent="Mozilla/5.0 (Windows NT 10.0; Win64; x64) AppleWebKit/537.36 (KHTML, like Gecko) Chrome/134.0.0.0 Safari/537.36" version="26.1.3">
  <diagram id="C5RBs43oDa-KdzZeNtuy" name="Page-1">
    <mxGraphModel dx="2261" dy="780" grid="1" gridSize="10" guides="1" tooltips="1" connect="1" arrows="1" fold="1" page="1" pageScale="1" pageWidth="827" pageHeight="1169" math="0" shadow="0">
      <root>
        <mxCell id="WIyWlLk6GJQsqaUBKTNV-0" />
        <mxCell id="WIyWlLk6GJQsqaUBKTNV-1" parent="WIyWlLk6GJQsqaUBKTNV-0" />
        <mxCell id="zzFC89dBYd4Tr7CsQ0Fq-0" value="&lt;span&gt;&amp;lt;&amp;lt;Interface&amp;gt;&amp;gt;&lt;br&gt;Theme&lt;/span&gt;" style="swimlane;fontStyle=1;align=center;verticalAlign=top;childLayout=stackLayout;horizontal=1;startSize=40;horizontalStack=0;resizeParent=1;resizeParentMax=0;resizeLast=0;collapsible=1;marginBottom=0;whiteSpace=wrap;html=1;" parent="WIyWlLk6GJQsqaUBKTNV-1" vertex="1">
          <mxGeometry x="-50" y="170" width="160" height="66" as="geometry" />
        </mxCell>
        <mxCell id="zzFC89dBYd4Tr7CsQ0Fq-3" value="+ applyStyle()" style="text;strokeColor=none;fillColor=none;align=left;verticalAlign=top;spacingLeft=4;spacingRight=4;overflow=hidden;rotatable=0;points=[[0,0.5],[1,0.5]];portConstraint=eastwest;whiteSpace=wrap;html=1;" parent="zzFC89dBYd4Tr7CsQ0Fq-0" vertex="1">
          <mxGeometry y="40" width="160" height="26" as="geometry" />
        </mxCell>
        <mxCell id="zzFC89dBYd4Tr7CsQ0Fq-54" style="edgeStyle=orthogonalEdgeStyle;rounded=0;orthogonalLoop=1;jettySize=auto;html=1;endSize=14;endArrow=open;endFill=0;startArrow=none;startFill=0;startSize=18;" parent="WIyWlLk6GJQsqaUBKTNV-1" source="zzFC89dBYd4Tr7CsQ0Fq-4" target="zzFC89dBYd4Tr7CsQ0Fq-0" edge="1">
          <mxGeometry relative="1" as="geometry" />
        </mxCell>
        <mxCell id="zzFC89dBYd4Tr7CsQ0Fq-4" value="&lt;i&gt;Widget&lt;/i&gt;" style="swimlane;fontStyle=1;align=center;verticalAlign=top;childLayout=stackLayout;horizontal=1;startSize=26;horizontalStack=0;resizeParent=1;resizeParentMax=0;resizeLast=0;collapsible=1;marginBottom=0;whiteSpace=wrap;html=1;" parent="WIyWlLk6GJQsqaUBKTNV-1" vertex="1">
          <mxGeometry x="470" y="147" width="160" height="112" as="geometry" />
        </mxCell>
        <mxCell id="zzFC89dBYd4Tr7CsQ0Fq-5" value="- theme: Theme" style="text;strokeColor=none;fillColor=none;align=left;verticalAlign=top;spacingLeft=4;spacingRight=4;overflow=hidden;rotatable=0;points=[[0,0.5],[1,0.5]];portConstraint=eastwest;whiteSpace=wrap;html=1;" parent="zzFC89dBYd4Tr7CsQ0Fq-4" vertex="1">
          <mxGeometry y="26" width="160" height="26" as="geometry" />
        </mxCell>
        <mxCell id="zzFC89dBYd4Tr7CsQ0Fq-6" value="" style="line;strokeWidth=1;fillColor=none;align=left;verticalAlign=middle;spacingTop=-1;spacingLeft=3;spacingRight=3;rotatable=0;labelPosition=right;points=[];portConstraint=eastwest;strokeColor=inherit;" parent="zzFC89dBYd4Tr7CsQ0Fq-4" vertex="1">
          <mxGeometry y="52" width="160" height="8" as="geometry" />
        </mxCell>
        <mxCell id="zzFC89dBYd4Tr7CsQ0Fq-7" value="+ render()" style="text;strokeColor=none;fillColor=none;align=left;verticalAlign=top;spacingLeft=4;spacingRight=4;overflow=hidden;rotatable=0;points=[[0,0.5],[1,0.5]];portConstraint=eastwest;whiteSpace=wrap;html=1;" parent="zzFC89dBYd4Tr7CsQ0Fq-4" vertex="1">
          <mxGeometry y="60" width="160" height="26" as="geometry" />
        </mxCell>
        <mxCell id="zzFC89dBYd4Tr7CsQ0Fq-25" value="+ setTheme()" style="text;strokeColor=none;fillColor=none;align=left;verticalAlign=top;spacingLeft=4;spacingRight=4;overflow=hidden;rotatable=0;points=[[0,0.5],[1,0.5]];portConstraint=eastwest;whiteSpace=wrap;html=1;" parent="zzFC89dBYd4Tr7CsQ0Fq-4" vertex="1">
          <mxGeometry y="86" width="160" height="26" as="geometry" />
        </mxCell>
        <mxCell id="zzFC89dBYd4Tr7CsQ0Fq-22" style="edgeStyle=orthogonalEdgeStyle;rounded=0;orthogonalLoop=1;jettySize=auto;html=1;endArrow=block;endFill=0;strokeWidth=1;endSize=12;dashed=1;" parent="WIyWlLk6GJQsqaUBKTNV-1" source="zzFC89dBYd4Tr7CsQ0Fq-13" target="zzFC89dBYd4Tr7CsQ0Fq-0" edge="1">
          <mxGeometry relative="1" as="geometry">
            <Array as="points">
              <mxPoint x="-240" y="296" />
              <mxPoint x="-10" y="296" />
            </Array>
          </mxGeometry>
        </mxCell>
        <mxCell id="zzFC89dBYd4Tr7CsQ0Fq-13" value="DarkTheme" style="swimlane;fontStyle=1;align=center;verticalAlign=top;childLayout=stackLayout;horizontal=1;startSize=26;horizontalStack=0;resizeParent=1;resizeParentMax=0;resizeLast=0;collapsible=1;marginBottom=0;whiteSpace=wrap;html=1;" parent="WIyWlLk6GJQsqaUBKTNV-1" vertex="1">
          <mxGeometry x="-320" y="370" width="160" height="52" as="geometry" />
        </mxCell>
        <mxCell id="zzFC89dBYd4Tr7CsQ0Fq-14" value="+ applyStyle()" style="text;strokeColor=none;fillColor=none;align=left;verticalAlign=top;spacingLeft=4;spacingRight=4;overflow=hidden;rotatable=0;points=[[0,0.5],[1,0.5]];portConstraint=eastwest;whiteSpace=wrap;html=1;" parent="zzFC89dBYd4Tr7CsQ0Fq-13" vertex="1">
          <mxGeometry y="26" width="160" height="26" as="geometry" />
        </mxCell>
        <mxCell id="zzFC89dBYd4Tr7CsQ0Fq-23" style="edgeStyle=orthogonalEdgeStyle;rounded=0;orthogonalLoop=1;jettySize=auto;html=1;endArrow=block;endFill=0;endSize=12;dashed=1;" parent="WIyWlLk6GJQsqaUBKTNV-1" source="zzFC89dBYd4Tr7CsQ0Fq-15" target="zzFC89dBYd4Tr7CsQ0Fq-0" edge="1">
          <mxGeometry relative="1" as="geometry">
            <Array as="points">
              <mxPoint x="-60" y="330" />
              <mxPoint x="30" y="330" />
            </Array>
          </mxGeometry>
        </mxCell>
        <mxCell id="zzFC89dBYd4Tr7CsQ0Fq-15" value="LightTheme" style="swimlane;fontStyle=1;align=center;verticalAlign=top;childLayout=stackLayout;horizontal=1;startSize=26;horizontalStack=0;resizeParent=1;resizeParentMax=0;resizeLast=0;collapsible=1;marginBottom=0;whiteSpace=wrap;html=1;" parent="WIyWlLk6GJQsqaUBKTNV-1" vertex="1">
          <mxGeometry x="-140" y="370" width="160" height="52" as="geometry" />
        </mxCell>
        <mxCell id="zzFC89dBYd4Tr7CsQ0Fq-16" value="+ applyStyle()" style="text;strokeColor=none;fillColor=none;align=left;verticalAlign=top;spacingLeft=4;spacingRight=4;overflow=hidden;rotatable=0;points=[[0,0.5],[1,0.5]];portConstraint=eastwest;whiteSpace=wrap;html=1;" parent="zzFC89dBYd4Tr7CsQ0Fq-15" vertex="1">
          <mxGeometry y="26" width="160" height="26" as="geometry" />
        </mxCell>
        <mxCell id="zzFC89dBYd4Tr7CsQ0Fq-24" style="edgeStyle=orthogonalEdgeStyle;rounded=0;orthogonalLoop=1;jettySize=auto;html=1;endArrow=block;endFill=0;endSize=12;dashed=1;" parent="WIyWlLk6GJQsqaUBKTNV-1" source="zzFC89dBYd4Tr7CsQ0Fq-17" target="zzFC89dBYd4Tr7CsQ0Fq-0" edge="1">
          <mxGeometry relative="1" as="geometry">
            <Array as="points">
              <mxPoint x="120" y="306" />
              <mxPoint x="70" y="306" />
            </Array>
          </mxGeometry>
        </mxCell>
        <mxCell id="zzFC89dBYd4Tr7CsQ0Fq-17" value="CustomTheme" style="swimlane;fontStyle=1;align=center;verticalAlign=top;childLayout=stackLayout;horizontal=1;startSize=26;horizontalStack=0;resizeParent=1;resizeParentMax=0;resizeLast=0;collapsible=1;marginBottom=0;whiteSpace=wrap;html=1;" parent="WIyWlLk6GJQsqaUBKTNV-1" vertex="1">
          <mxGeometry x="40" y="370" width="160" height="130" as="geometry" />
        </mxCell>
        <mxCell id="zzFC89dBYd4Tr7CsQ0Fq-18" value="- bgColor: QString" style="text;strokeColor=none;fillColor=none;align=left;verticalAlign=top;spacingLeft=4;spacingRight=4;overflow=hidden;rotatable=0;points=[[0,0.5],[1,0.5]];portConstraint=eastwest;whiteSpace=wrap;html=1;" parent="zzFC89dBYd4Tr7CsQ0Fq-17" vertex="1">
          <mxGeometry y="26" width="160" height="26" as="geometry" />
        </mxCell>
        <mxCell id="zzFC89dBYd4Tr7CsQ0Fq-20" value="- textColor: QString" style="text;strokeColor=none;fillColor=none;align=left;verticalAlign=top;spacingLeft=4;spacingRight=4;overflow=hidden;rotatable=0;points=[[0,0.5],[1,0.5]];portConstraint=eastwest;whiteSpace=wrap;html=1;" parent="zzFC89dBYd4Tr7CsQ0Fq-17" vertex="1">
          <mxGeometry y="52" width="160" height="26" as="geometry" />
        </mxCell>
        <mxCell id="zzFC89dBYd4Tr7CsQ0Fq-19" value="- borderColor: QString" style="text;strokeColor=none;fillColor=none;align=left;verticalAlign=top;spacingLeft=4;spacingRight=4;overflow=hidden;rotatable=0;points=[[0,0.5],[1,0.5]];portConstraint=eastwest;whiteSpace=wrap;html=1;" parent="zzFC89dBYd4Tr7CsQ0Fq-17" vertex="1">
          <mxGeometry y="78" width="160" height="26" as="geometry" />
        </mxCell>
        <mxCell id="zzFC89dBYd4Tr7CsQ0Fq-21" value="+ applyStyle()" style="text;strokeColor=default;fillColor=none;align=left;verticalAlign=top;spacingLeft=4;spacingRight=4;overflow=hidden;rotatable=0;points=[[0,0.5],[1,0.5]];portConstraint=eastwest;whiteSpace=wrap;html=1;" parent="zzFC89dBYd4Tr7CsQ0Fq-17" vertex="1">
          <mxGeometry y="104" width="160" height="26" as="geometry" />
        </mxCell>
        <mxCell id="zzFC89dBYd4Tr7CsQ0Fq-40" style="edgeStyle=orthogonalEdgeStyle;rounded=0;orthogonalLoop=1;jettySize=auto;html=1;endArrow=none;startFill=0;" parent="WIyWlLk6GJQsqaUBKTNV-1" source="zzFC89dBYd4Tr7CsQ0Fq-26" target="zzFC89dBYd4Tr7CsQ0Fq-4" edge="1">
          <mxGeometry relative="1" as="geometry">
            <Array as="points">
              <mxPoint x="550" y="345" />
            </Array>
          </mxGeometry>
        </mxCell>
        <mxCell id="zzFC89dBYd4Tr7CsQ0Fq-26" value="Button" style="swimlane;fontStyle=1;align=center;verticalAlign=top;childLayout=stackLayout;horizontal=1;startSize=26;horizontalStack=0;resizeParent=1;resizeParentMax=0;resizeLast=0;collapsible=1;marginBottom=0;whiteSpace=wrap;html=1;" parent="WIyWlLk6GJQsqaUBKTNV-1" vertex="1">
          <mxGeometry x="330" y="319" width="160" height="52" as="geometry" />
        </mxCell>
        <mxCell id="zzFC89dBYd4Tr7CsQ0Fq-27" value="+ render()" style="text;strokeColor=none;fillColor=none;align=left;verticalAlign=top;spacingLeft=4;spacingRight=4;overflow=hidden;rotatable=0;points=[[0,0.5],[1,0.5]];portConstraint=eastwest;whiteSpace=wrap;html=1;" parent="zzFC89dBYd4Tr7CsQ0Fq-26" vertex="1">
          <mxGeometry y="26" width="160" height="26" as="geometry" />
        </mxCell>
        <mxCell id="zzFC89dBYd4Tr7CsQ0Fq-41" style="edgeStyle=orthogonalEdgeStyle;rounded=0;orthogonalLoop=1;jettySize=auto;html=1;endArrow=none;startFill=0;" parent="WIyWlLk6GJQsqaUBKTNV-1" source="zzFC89dBYd4Tr7CsQ0Fq-28" target="zzFC89dBYd4Tr7CsQ0Fq-4" edge="1">
          <mxGeometry relative="1" as="geometry">
            <Array as="points">
              <mxPoint x="550" y="345" />
            </Array>
          </mxGeometry>
        </mxCell>
        <mxCell id="zzFC89dBYd4Tr7CsQ0Fq-28" value="Label" style="swimlane;fontStyle=1;align=center;verticalAlign=top;childLayout=stackLayout;horizontal=1;startSize=26;horizontalStack=0;resizeParent=1;resizeParentMax=0;resizeLast=0;collapsible=1;marginBottom=0;whiteSpace=wrap;html=1;" parent="WIyWlLk6GJQsqaUBKTNV-1" vertex="1">
          <mxGeometry x="607" y="319" width="160" height="52" as="geometry" />
        </mxCell>
        <mxCell id="zzFC89dBYd4Tr7CsQ0Fq-29" value="+ render()" style="text;strokeColor=none;fillColor=none;align=left;verticalAlign=top;spacingLeft=4;spacingRight=4;overflow=hidden;rotatable=0;points=[[0,0.5],[1,0.5]];portConstraint=eastwest;whiteSpace=wrap;html=1;" parent="zzFC89dBYd4Tr7CsQ0Fq-28" vertex="1">
          <mxGeometry y="26" width="160" height="26" as="geometry" />
        </mxCell>
        <mxCell id="zzFC89dBYd4Tr7CsQ0Fq-42" style="edgeStyle=orthogonalEdgeStyle;rounded=0;orthogonalLoop=1;jettySize=auto;html=1;endArrow=none;startFill=0;" parent="WIyWlLk6GJQsqaUBKTNV-1" source="zzFC89dBYd4Tr7CsQ0Fq-30" target="zzFC89dBYd4Tr7CsQ0Fq-4" edge="1">
          <mxGeometry relative="1" as="geometry">
            <Array as="points">
              <mxPoint x="550" y="420" />
            </Array>
          </mxGeometry>
        </mxCell>
        <mxCell id="zzFC89dBYd4Tr7CsQ0Fq-30" value="LineEdit" style="swimlane;fontStyle=1;align=center;verticalAlign=top;childLayout=stackLayout;horizontal=1;startSize=26;horizontalStack=0;resizeParent=1;resizeParentMax=0;resizeLast=0;collapsible=1;marginBottom=0;whiteSpace=wrap;html=1;" parent="WIyWlLk6GJQsqaUBKTNV-1" vertex="1">
          <mxGeometry x="330" y="401" width="160" height="52" as="geometry" />
        </mxCell>
        <mxCell id="zzFC89dBYd4Tr7CsQ0Fq-31" value="+ render()" style="text;strokeColor=none;fillColor=none;align=left;verticalAlign=top;spacingLeft=4;spacingRight=4;overflow=hidden;rotatable=0;points=[[0,0.5],[1,0.5]];portConstraint=eastwest;whiteSpace=wrap;html=1;" parent="zzFC89dBYd4Tr7CsQ0Fq-30" vertex="1">
          <mxGeometry y="26" width="160" height="26" as="geometry" />
        </mxCell>
        <mxCell id="zzFC89dBYd4Tr7CsQ0Fq-43" style="edgeStyle=orthogonalEdgeStyle;rounded=0;orthogonalLoop=1;jettySize=auto;html=1;endArrow=none;startFill=0;" parent="WIyWlLk6GJQsqaUBKTNV-1" source="zzFC89dBYd4Tr7CsQ0Fq-32" target="zzFC89dBYd4Tr7CsQ0Fq-4" edge="1">
          <mxGeometry relative="1" as="geometry">
            <Array as="points">
              <mxPoint x="550" y="420" />
            </Array>
          </mxGeometry>
        </mxCell>
        <mxCell id="zzFC89dBYd4Tr7CsQ0Fq-32" value="CheckBox" style="swimlane;fontStyle=1;align=center;verticalAlign=top;childLayout=stackLayout;horizontal=1;startSize=26;horizontalStack=0;resizeParent=1;resizeParentMax=0;resizeLast=0;collapsible=1;marginBottom=0;whiteSpace=wrap;html=1;" parent="WIyWlLk6GJQsqaUBKTNV-1" vertex="1">
          <mxGeometry x="607" y="401" width="160" height="52" as="geometry" />
        </mxCell>
        <mxCell id="zzFC89dBYd4Tr7CsQ0Fq-33" value="+ render()" style="text;strokeColor=none;fillColor=none;align=left;verticalAlign=top;spacingLeft=4;spacingRight=4;overflow=hidden;rotatable=0;points=[[0,0.5],[1,0.5]];portConstraint=eastwest;whiteSpace=wrap;html=1;" parent="zzFC89dBYd4Tr7CsQ0Fq-32" vertex="1">
          <mxGeometry y="26" width="160" height="26" as="geometry" />
        </mxCell>
        <mxCell id="zzFC89dBYd4Tr7CsQ0Fq-45" style="edgeStyle=orthogonalEdgeStyle;rounded=0;orthogonalLoop=1;jettySize=auto;html=1;endArrow=none;startFill=0;" parent="WIyWlLk6GJQsqaUBKTNV-1" source="zzFC89dBYd4Tr7CsQ0Fq-34" target="zzFC89dBYd4Tr7CsQ0Fq-4" edge="1">
          <mxGeometry relative="1" as="geometry">
            <Array as="points">
              <mxPoint x="550" y="507" />
            </Array>
          </mxGeometry>
        </mxCell>
        <mxCell id="zzFC89dBYd4Tr7CsQ0Fq-34" value="ComboBox" style="swimlane;fontStyle=1;align=center;verticalAlign=top;childLayout=stackLayout;horizontal=1;startSize=26;horizontalStack=0;resizeParent=1;resizeParentMax=0;resizeLast=0;collapsible=1;marginBottom=0;whiteSpace=wrap;html=1;" parent="WIyWlLk6GJQsqaUBKTNV-1" vertex="1">
          <mxGeometry x="330" y="481" width="160" height="52" as="geometry" />
        </mxCell>
        <mxCell id="zzFC89dBYd4Tr7CsQ0Fq-35" value="+ render()" style="text;strokeColor=none;fillColor=none;align=left;verticalAlign=top;spacingLeft=4;spacingRight=4;overflow=hidden;rotatable=0;points=[[0,0.5],[1,0.5]];portConstraint=eastwest;whiteSpace=wrap;html=1;" parent="zzFC89dBYd4Tr7CsQ0Fq-34" vertex="1">
          <mxGeometry y="26" width="160" height="26" as="geometry" />
        </mxCell>
        <mxCell id="zzFC89dBYd4Tr7CsQ0Fq-44" style="edgeStyle=orthogonalEdgeStyle;rounded=0;orthogonalLoop=1;jettySize=auto;html=1;endArrow=none;startFill=0;" parent="WIyWlLk6GJQsqaUBKTNV-1" source="zzFC89dBYd4Tr7CsQ0Fq-36" target="zzFC89dBYd4Tr7CsQ0Fq-4" edge="1">
          <mxGeometry relative="1" as="geometry">
            <Array as="points">
              <mxPoint x="550" y="507" />
            </Array>
          </mxGeometry>
        </mxCell>
        <mxCell id="zzFC89dBYd4Tr7CsQ0Fq-36" value="Slider" style="swimlane;fontStyle=1;align=center;verticalAlign=top;childLayout=stackLayout;horizontal=1;startSize=26;horizontalStack=0;resizeParent=1;resizeParentMax=0;resizeLast=0;collapsible=1;marginBottom=0;whiteSpace=wrap;html=1;" parent="WIyWlLk6GJQsqaUBKTNV-1" vertex="1">
          <mxGeometry x="607" y="481" width="160" height="52" as="geometry" />
        </mxCell>
        <mxCell id="zzFC89dBYd4Tr7CsQ0Fq-37" value="+ render()" style="text;strokeColor=none;fillColor=none;align=left;verticalAlign=top;spacingLeft=4;spacingRight=4;overflow=hidden;rotatable=0;points=[[0,0.5],[1,0.5]];portConstraint=eastwest;whiteSpace=wrap;html=1;" parent="zzFC89dBYd4Tr7CsQ0Fq-36" vertex="1">
          <mxGeometry y="26" width="160" height="26" as="geometry" />
        </mxCell>
        <mxCell id="zzFC89dBYd4Tr7CsQ0Fq-46" style="edgeStyle=orthogonalEdgeStyle;rounded=0;orthogonalLoop=1;jettySize=auto;html=1;endArrow=block;endFill=0;endSize=13;" parent="WIyWlLk6GJQsqaUBKTNV-1" source="zzFC89dBYd4Tr7CsQ0Fq-38" target="zzFC89dBYd4Tr7CsQ0Fq-4" edge="1">
          <mxGeometry relative="1" as="geometry">
            <Array as="points">
              <mxPoint x="550" y="586" />
            </Array>
          </mxGeometry>
        </mxCell>
        <mxCell id="zzFC89dBYd4Tr7CsQ0Fq-38" value="TextEdit" style="swimlane;fontStyle=1;align=center;verticalAlign=top;childLayout=stackLayout;horizontal=1;startSize=26;horizontalStack=0;resizeParent=1;resizeParentMax=0;resizeLast=0;collapsible=1;marginBottom=0;whiteSpace=wrap;html=1;" parent="WIyWlLk6GJQsqaUBKTNV-1" vertex="1">
          <mxGeometry x="330" y="560" width="160" height="52" as="geometry" />
        </mxCell>
        <mxCell id="zzFC89dBYd4Tr7CsQ0Fq-39" value="+ render()" style="text;strokeColor=none;fillColor=none;align=left;verticalAlign=top;spacingLeft=4;spacingRight=4;overflow=hidden;rotatable=0;points=[[0,0.5],[1,0.5]];portConstraint=eastwest;whiteSpace=wrap;html=1;" parent="zzFC89dBYd4Tr7CsQ0Fq-38" vertex="1">
          <mxGeometry y="26" width="160" height="26" as="geometry" />
        </mxCell>
        <mxCell id="zzFC89dBYd4Tr7CsQ0Fq-53" style="edgeStyle=orthogonalEdgeStyle;rounded=0;orthogonalLoop=1;jettySize=auto;html=1;endArrow=open;endFill=0;endSize=14;startArrow=diamondThin;startFill=0;startSize=18;" parent="WIyWlLk6GJQsqaUBKTNV-1" source="zzFC89dBYd4Tr7CsQ0Fq-47" target="zzFC89dBYd4Tr7CsQ0Fq-0" edge="1">
          <mxGeometry relative="1" as="geometry" />
        </mxCell>
        <mxCell id="zzFC89dBYd4Tr7CsQ0Fq-47" value="ThemeManager" style="swimlane;fontStyle=1;align=center;verticalAlign=top;childLayout=stackLayout;horizontal=1;startSize=26;horizontalStack=0;resizeParent=1;resizeParentMax=0;resizeLast=0;collapsible=1;marginBottom=0;whiteSpace=wrap;html=1;" parent="WIyWlLk6GJQsqaUBKTNV-1" vertex="1">
          <mxGeometry x="-310" y="10" width="160" height="138" as="geometry" />
        </mxCell>
        <mxCell id="zzFC89dBYd4Tr7CsQ0Fq-48" value="- themes: QMap" style="text;strokeColor=none;fillColor=none;align=left;verticalAlign=top;spacingLeft=4;spacingRight=4;overflow=hidden;rotatable=0;points=[[0,0.5],[1,0.5]];portConstraint=eastwest;whiteSpace=wrap;html=1;" parent="zzFC89dBYd4Tr7CsQ0Fq-47" vertex="1">
          <mxGeometry y="26" width="160" height="26" as="geometry" />
        </mxCell>
        <mxCell id="zzFC89dBYd4Tr7CsQ0Fq-49" value="" style="line;strokeWidth=1;fillColor=none;align=left;verticalAlign=middle;spacingTop=-1;spacingLeft=3;spacingRight=3;rotatable=0;labelPosition=right;points=[];portConstraint=eastwest;strokeColor=inherit;" parent="zzFC89dBYd4Tr7CsQ0Fq-47" vertex="1">
          <mxGeometry y="52" width="160" height="8" as="geometry" />
        </mxCell>
        <mxCell id="zzFC89dBYd4Tr7CsQ0Fq-50" value="+ addTheme()" style="text;strokeColor=none;fillColor=none;align=left;verticalAlign=top;spacingLeft=4;spacingRight=4;overflow=hidden;rotatable=0;points=[[0,0.5],[1,0.5]];portConstraint=eastwest;whiteSpace=wrap;html=1;" parent="zzFC89dBYd4Tr7CsQ0Fq-47" vertex="1">
          <mxGeometry y="60" width="160" height="26" as="geometry" />
        </mxCell>
        <mxCell id="zzFC89dBYd4Tr7CsQ0Fq-51" value="+ getTheme()" style="text;strokeColor=none;fillColor=none;align=left;verticalAlign=top;spacingLeft=4;spacingRight=4;overflow=hidden;rotatable=0;points=[[0,0.5],[1,0.5]];portConstraint=eastwest;whiteSpace=wrap;html=1;" parent="zzFC89dBYd4Tr7CsQ0Fq-47" vertex="1">
          <mxGeometry y="86" width="160" height="26" as="geometry" />
        </mxCell>
        <mxCell id="zzFC89dBYd4Tr7CsQ0Fq-52" value="+ getThemeNames()" style="text;strokeColor=none;fillColor=none;align=left;verticalAlign=top;spacingLeft=4;spacingRight=4;overflow=hidden;rotatable=0;points=[[0,0.5],[1,0.5]];portConstraint=eastwest;whiteSpace=wrap;html=1;" parent="zzFC89dBYd4Tr7CsQ0Fq-47" vertex="1">
          <mxGeometry y="112" width="160" height="26" as="geometry" />
        </mxCell>
      </root>
    </mxGraphModel>
  </diagram>
</mxfile>
